ScienceGothic-Lt.ufo
<glyph name="asterisk" format="2">
  <advance width="1112"/>
  <unicode hex="002A"/>
  <outline>
    <contour>
      <point x="538" y="778" type="line"/>
      <point x="538" y="1083" type="line"/>
      <point x="275" y="919" type="line"/>
      <point x="257" y="946" type="line"/>
      <point x="525" y="1113" type="line"/>
      <point x="258" y="1279" type="line"/>
      <point x="276" y="1306" type="line"/>
      <point x="538" y="1143" type="line"/>
      <point x="538" y="1448" type="line"/>
      <point x="574" y="1448" type="line"/>
      <point x="574" y="1141" type="line"/>
      <point x="838" y="1306" type="line"/>
      <point x="856" y="1279" type="line"/>
      <point x="588" y="1112" type="line"/>
      <point x="855" y="946" type="line"/>
      <point x="837" y="919" type="line"/>
      <point x="574" y="1083" type="line"/>
      <point x="574" y="778" type="line"/>
    </contour>
  </outline>
</glyph>
<glyph name="three" format="2">
  <advance width="1655" height="1448"/>
  <unicode hex="0033"/>
  <outline>
    <contour>
      <point x="285" y="398" type="line"/>
      <point x="325" y="406" type="line"/>
      <point x="325" y="291" type="line" smooth="yes"/>
      <point x="325" y="228"/>
      <point x="355" y="133"/>
      <point x="418" y="68"/>
      <point x="514" y="36"/>
      <point x="580" y="36" type="qcurve" smooth="yes"/>
      <point x="1075" y="36" type="line" smooth="yes"/>
      <point x="1141" y="36"/>
      <point x="1237" y="68"/>
      <point x="1300" y="133"/>
      <point x="1330" y="228"/>
      <point x="1330" y="291" type="qcurve" smooth="yes"/>
      <point x="1330" y="500" type="line" smooth="yes"/>
      <point x="1330" y="553"/>
      <point x="1293" y="626"/>
      <point x="1224" y="671"/>
      <point x="1126" y="692"/>
      <point x="1066" y="692" type="qcurve" smooth="yes"/>
      <point x="696" y="692" type="line"/>
      <point x="696" y="728" type="line"/>
      <point x="1050" y="728" type="line" smooth="yes"/>
      <point x="1110" y="728"/>
      <point x="1208" y="749"/>
      <point x="1277" y="794"/>
      <point x="1314" y="868"/>
      <point x="1314" y="920" type="qcurve" smooth="yes"/>
      <point x="1314" y="1109" type="line" smooth="yes"/>
      <point x="1314" y="1172"/>
      <point x="1284" y="1267"/>
      <point x="1221" y="1332"/>
      <point x="1125" y="1364"/>
      <point x="1059" y="1364" type="qcurve" smooth="yes"/>
      <point x="590" y="1364" type="line" smooth="yes"/>
      <point x="524" y="1364"/>
      <point x="428" y="1332"/>
      <point x="365" y="1267"/>
      <point x="335" y="1172"/>
      <point x="335" y="1109" type="qcurve" smooth="yes"/>
      <point x="335" y="970" type="line"/>
      <point x="295" y="978" type="line"/>
      <point x="295" y="1107" type="line" smooth="yes"/>
      <point x="295" y="1179"/>
      <point x="330" y="1288"/>
      <point x="403" y="1362"/>
      <point x="513" y="1400"/>
      <point x="588" y="1400" type="qcurve" smooth="yes"/>
      <point x="1061" y="1400" type="line" smooth="yes"/>
      <point x="1136" y="1400"/>
      <point x="1246" y="1362"/>
      <point x="1319" y="1288"/>
      <point x="1354" y="1179"/>
      <point x="1354" y="1107" type="qcurve" smooth="yes"/>
      <point x="1354" y="930" type="line" smooth="yes"/>
      <point x="1354" y="884"/>
      <point x="1335" y="814"/>
      <point x="1297" y="761"/>
      <point x="1239" y="724"/>
      <point x="1199" y="712" type="qcurve"/>
      <point x="1243" y="701"/>
      <point x="1307" y="665"/>
      <point x="1349" y="611"/>
      <point x="1370" y="538"/>
      <point x="1370" y="490" type="qcurve" smooth="yes"/>
      <point x="1370" y="293" type="line" smooth="yes"/>
      <point x="1370" y="221"/>
      <point x="1335" y="112"/>
      <point x="1262" y="38"/>
      <point x="1152" y="0"/>
      <point x="1077" y="0" type="qcurve" smooth="yes"/>
      <point x="578" y="0" type="line" smooth="yes"/>
      <point x="503" y="0"/>
      <point x="393" y="38"/>
      <point x="320" y="112"/>
      <point x="285" y="221"/>
      <point x="285" y="293" type="qcurve" smooth="yes"/>
    </contour>
  </outline>
</glyph>
<glyph name="colon" format="2">
  <advance width="607"/>
  <unicode hex="003A"/>
  <outline>
    <contour>
      <point x="257" y="22" type="line"/>
      <point x="257" y="64" type="line" smooth="yes"/>
      <point x="257" y="73"/>
      <point x="258" y="84"/>
      <point x="263" y="89"/>
      <point x="273" y="90"/>
      <point x="283" y="90" type="qcurve" smooth="yes"/>
      <point x="326" y="90" type="line" smooth="yes"/>
      <point x="335" y="90"/>
      <point x="345" y="89"/>
      <point x="349" y="84"/>
      <point x="351" y="73"/>
      <point x="351" y="64" type="qcurve" smooth="yes"/>
      <point x="351" y="22" type="line" smooth="yes"/>
      <point x="351" y="13"/>
      <point x="349" y="2"/>
      <point x="344" y="-3"/>
      <point x="334" y="-4"/>
      <point x="325" y="-4" type="qcurve" smooth="yes"/>
      <point x="283" y="-4" type="line" smooth="yes"/>
      <point x="273" y="-4"/>
      <point x="263" y="-3"/>
      <point x="258" y="2"/>
      <point x="257" y="13"/>
      <point x="257" y="22" type="qcurve"/>
    </contour>
    <contour>
      <point x="257" y="936" type="line"/>
      <point x="257" y="978" type="line" smooth="yes"/>
      <point x="257" y="987"/>
      <point x="258" y="998"/>
      <point x="263" y="1003"/>
      <point x="273" y="1004"/>
      <point x="283" y="1004" type="qcurve" smooth="yes"/>
      <point x="325" y="1004" type="line" smooth="yes"/>
      <point x="334" y="1004"/>
      <point x="344" y="1003"/>
      <point x="349" y="998"/>
      <point x="351" y="987"/>
      <point x="351" y="978" type="qcurve" smooth="yes"/>
      <point x="351" y="936" type="line" smooth="yes"/>
      <point x="351" y="927"/>
      <point x="349" y="916"/>
      <point x="344" y="911"/>
      <point x="334" y="910"/>
      <point x="325" y="910" type="qcurve" smooth="yes"/>
      <point x="282" y="910" type="line" smooth="yes"/>
      <point x="273" y="910"/>
      <point x="262" y="911"/>
      <point x="258" y="916"/>
      <point x="257" y="927"/>
      <point x="257" y="936" type="qcurve"/>
    </contour>
  </outline>
</glyph>
<glyph name="J" format="2">
  <advance width="1566" height="1448"/>
  <unicode hex="004A"/>
  <anchor x="1259" y="1598" name="top"/>
  <anchor x="718" y="-150" name="bottom"/>
  <outline>
    <contour>
      <point x="1289" y="1400" type="line"/>
      <point x="1249" y="1400" type="line"/>
      <point x="1249" y="291" type="line" smooth="yes"/>
      <point x="1249" y="228"/>
      <point x="1219" y="133"/>
      <point x="1156" y="69"/>
      <point x="1060" y="36"/>
      <point x="994" y="36" type="qcurve" smooth="yes"/>
      <point x="500" y="36" type="line" smooth="yes"/>
      <point x="437" y="36"/>
      <point x="342" y="66"/>
      <point x="278" y="129"/>
      <point x="245" y="225"/>
      <point x="245" y="291" type="qcurve" smooth="yes"/>
      <point x="245" y="620" type="line"/>
      <point x="205" y="612" type="line"/>
      <point x="205" y="293" type="line" smooth="yes"/>
      <point x="205" y="222"/>
      <point x="240" y="112"/>
      <point x="313" y="38"/>
      <point x="423" y="0"/>
      <point x="498" y="0" type="qcurve" smooth="yes"/>
      <point x="996" y="0" type="line" smooth="yes"/>
      <point x="1071" y="0"/>
      <point x="1181" y="38"/>
      <point x="1254" y="112"/>
      <point x="1289" y="222"/>
      <point x="1289" y="293" type="qcurve" smooth="yes"/>
    </contour>
  </outline>
</glyph>
<glyph name="backslash" format="2">
  <advance width="853"/>
  <unicode hex="005C"/>
  <outline>
    <contour>
      <point x="166" y="1430" type="line"/>
      <point x="128" y="1430" type="line"/>
      <point x="686" y="-100" type="line"/>
      <point x="724" y="-100" type="line"/>
    </contour>
  </outline>
</glyph>
<glyph name="n" format="2">
  <advance width="1334" height="1448"/>
  <unicode hex="006E"/>
  <anchor x="680" y="1150" name="top"/>
  <anchor x="680" y="-150" name="bottom"/>
  <anchor x="150" y="500" name="left"/>
  <outline>
    <contour>
      <point x="242" y="0" type="line"/>
      <point x="242" y="1000" type="line"/>
      <point x="278" y="1000" type="line"/>
      <point x="278" y="972" type="line"/>
      <point x="289" y="986"/>
      <point x="327" y="1000"/>
      <point x="354" y="1000" type="qcurve" smooth="yes"/>
      <point x="935" y="1000" type="line" smooth="yes"/>
      <point x="975" y="1000"/>
      <point x="1037" y="979"/>
      <point x="1079" y="937"/>
      <point x="1100" y="875"/>
      <point x="1100" y="835" type="qcurve" smooth="yes"/>
      <point x="1100" y="0" type="line"/>
      <point x="1064" y="0" type="line"/>
      <point x="1064" y="832" type="line" smooth="yes"/>
      <point x="1064" y="899"/>
      <point x="995" y="968"/>
      <point x="928" y="968" type="qcurve" smooth="yes"/>
      <point x="278" y="968" type="line"/>
      <point x="278" y="0" type="line"/>
    </contour>
  </outline>
  <guideline angle="90" x="260" y="0"/>
  <guideline angle="90" x="1122" y="0"/>
  <guideline angle="0" x="0" y="988"/>
  <guideline angle="0" x="0" y="870"/>
</glyph>
<glyph name="asciitilde" format="2">
  <advance width="1176"/>
  <unicode hex="007E"/>
  <outline>
    <contour>
      <point x="5" y="451" type="line"/>
      <point x="18" y="511"/>
      <point x="57" y="599"/>
      <point x="106" y="661"/>
      <point x="162" y="700"/>
      <point x="220" y="722"/>
      <point x="276" y="730"/>
      <point x="301" y="730" type="qcurve" smooth="yes"/>
      <point x="360" y="730"/>
      <point x="460" y="693"/>
      <point x="551" y="637"/>
      <point x="637" y="573"/>
      <point x="725" y="517"/>
      <point x="821" y="480"/>
      <point x="876" y="480" type="qcurve" smooth="yes"/>
      <point x="922" y="480"/>
      <point x="1004" y="507"/>
      <point x="1072" y="566"/>
      <point x="1122" y="661"/>
      <point x="1136" y="729" type="qcurve"/>
      <point x="1171" y="723" type="line"/>
      <point x="1159" y="663"/>
      <point x="1119" y="575"/>
      <point x="1070" y="513"/>
      <point x="1014" y="474"/>
      <point x="956" y="452"/>
      <point x="900" y="444"/>
      <point x="875" y="444" type="qcurve" smooth="yes"/>
      <point x="816" y="444"/>
      <point x="716" y="481"/>
      <point x="625" y="537"/>
      <point x="539" y="601"/>
      <point x="451" y="657"/>
      <point x="355" y="694"/>
      <point x="300" y="694" type="qcurve" smooth="yes"/>
      <point x="254" y="694"/>
      <point x="172" y="667"/>
      <point x="104" y="608"/>
      <point x="54" y="513"/>
      <point x="40" y="445" type="qcurve"/>
    </contour>
  </outline>
</glyph>
<glyph name="uni0307" format="2">
  <unicode hex="0307"/>
  <anchor x="0" y="1150" name="_top"/>
  <anchor x="0" y="1450" name="_bottom"/>
  <anchor x="0" y="1369" name="top"/>
  <outline>
    <contour>
      <point x="-40" y="1265" type="line" smooth="yes"/>
      <point x="-40" y="1274"/>
      <point x="-39" y="1284"/>
      <point x="-35" y="1288"/>
      <point x="-25" y="1289"/>
      <point x="-16" y="1289" type="qcurve" smooth="yes"/>
      <point x="16" y="1289" type="line" smooth="yes"/>
      <point x="25" y="1289"/>
      <point x="35" y="1288"/>
      <point x="39" y="1284"/>
      <point x="40" y="1274"/>
      <point x="40" y="1265" type="qcurve" smooth="yes"/>
      <point x="40" y="1233" type="line" smooth="yes"/>
      <point x="40" y="1224"/>
      <point x="39" y="1214"/>
      <point x="35" y="1210"/>
      <point x="25" y="1209"/>
      <point x="16" y="1209" type="qcurve" smooth="yes"/>
      <point x="-16" y="1209" type="line" smooth="yes"/>
      <point x="-25" y="1209"/>
      <point x="-35" y="1210"/>
      <point x="-39" y="1214"/>
      <point x="-40" y="1224"/>
      <point x="-40" y="1233" type="qcurve" smooth="yes"/>
    </contour>
  </outline>
</glyph>
<glyph name="uni0328" format="2">
  <unicode hex="0328"/>
  <anchor x="0" y="-150" name="_bottom"/>
  <anchor x="113" y="0" name="_ogonek"/>
  <outline>
    <contour>
      <point x="113" y="0" type="line"/>
      <point x="60" y="-37"/>
      <point x="-13" y="-98"/>
      <point x="-59" y="-152"/>
      <point x="-80" y="-203"/>
      <point x="-80" y="-228" type="qcurve" smooth="yes"/>
      <point x="-80" y="-250"/>
      <point x="-66" y="-287"/>
      <point x="-40" y="-314"/>
      <point x="-4" y="-329"/>
      <point x="17" y="-329" type="qcurve" smooth="yes"/>
      <point x="28" y="-329"/>
      <point x="50" y="-325"/>
      <point x="74" y="-317"/>
      <point x="100" y="-305"/>
      <point x="113" y="-297" type="qcurve"/>
      <point x="113" y="-327" type="line"/>
      <point x="103" y="-335"/>
      <point x="80" y="-346"/>
      <point x="55" y="-355"/>
      <point x="28" y="-359"/>
      <point x="14" y="-359" type="qcurve" smooth="yes"/>
      <point x="-14" y="-359"/>
      <point x="-60" y="-340"/>
      <point x="-94" y="-307"/>
      <point x="-113" y="-261"/>
      <point x="-113" y="-234" type="qcurve" smooth="yes"/>
      <point x="-113" y="-206"/>
      <point x="-91" y="-151"/>
      <point x="-44" y="-94"/>
      <point x="28" y="-34"/>
      <point x="77" y="0" type="qcurve"/>
    </contour>
  </outline>
</glyph>
<glyph name="uni0402" format="2">
  <advance width="1991"/>
  <unicode hex="0402"/>
  <outline>
    <contour>
      <point x="611" y="0" type="line"/>
      <point x="651" y="0" type="line"/>
      <point x="651" y="740" type="line"/>
      <point x="1468" y="740" type="line" smooth="yes"/>
      <point x="1534" y="740"/>
      <point x="1630" y="707"/>
      <point x="1692" y="643"/>
      <point x="1722" y="548"/>
      <point x="1722" y="485" type="qcurve" smooth="yes"/>
      <point x="1722" y="291" type="line" smooth="yes"/>
      <point x="1722" y="228"/>
      <point x="1692" y="133"/>
      <point x="1630" y="68"/>
      <point x="1534" y="36"/>
      <point x="1468" y="36" type="qcurve" smooth="yes"/>
      <point x="1194" y="36" type="line"/>
      <point x="1194" y="0" type="line"/>
      <point x="1470" y="0" type="line" smooth="yes"/>
      <point x="1545" y="0"/>
      <point x="1655" y="38"/>
      <point x="1727" y="112"/>
      <point x="1762" y="221"/>
      <point x="1762" y="293" type="qcurve" smooth="yes"/>
      <point x="1762" y="483" type="line" smooth="yes"/>
      <point x="1762" y="554"/>
      <point x="1727" y="664"/>
      <point x="1655" y="738"/>
      <point x="1545" y="776"/>
      <point x="1470" y="776" type="qcurve" smooth="yes"/>
      <point x="651" y="776" type="line"/>
      <point x="651" y="1364" type="line"/>
      <point x="1257" y="1364" type="line"/>
      <point x="1257" y="1400" type="line"/>
      <point x="5" y="1400" type="line"/>
      <point x="5" y="1364" type="line"/>
      <point x="611" y="1364" type="line"/>
    </contour>
  </outline>
  <guideline angle="90" color="1,0,0,1" x="611" y="0"/>
</glyph>
<glyph name="uni04A5" format="2">
  <advance width="1580"/>
  <unicode hex="04A5"/>
  <outline>
    <contour>
      <point x="242" y="0" type="line"/>
      <point x="278" y="0" type="line"/>
      <point x="278" y="504" type="line"/>
      <point x="1064" y="504" type="line"/>
      <point x="1064" y="0" type="line"/>
      <point x="1100" y="0" type="line"/>
      <point x="1100" y="968" type="line"/>
      <point x="1511" y="968" type="line"/>
      <point x="1511" y="1000" type="line"/>
      <point x="1064" y="1000" type="line"/>
      <point x="1064" y="536" type="line"/>
      <point x="278" y="536" type="line"/>
      <point x="278" y="1000" type="line"/>
      <point x="242" y="1000" type="line"/>
    </contour>
  </outline>
</glyph>
<glyph name="uni04B8" format="2">
  <advance width="1674"/>
  <unicode hex="04B8"/>
  <outline>
    <contour>
      <point x="1349" y="0" type="line"/>
      <point x="1389" y="0" type="line"/>
      <point x="1389" y="1400" type="line"/>
      <point x="1349" y="1400" type="line"/>
      <point x="1349" y="608" type="line"/>
      <point x="845" y="608" type="line"/>
      <point x="845" y="1120" type="line"/>
      <point x="809" y="1120" type="line"/>
      <point x="809" y="608" type="line"/>
      <point x="560" y="608" type="line" smooth="yes"/>
      <point x="494" y="608"/>
      <point x="398" y="640"/>
      <point x="335" y="705"/>
      <point x="305" y="800"/>
      <point x="305" y="863" type="qcurve" smooth="yes"/>
      <point x="305" y="1400" type="line"/>
      <point x="265" y="1400" type="line"/>
      <point x="265" y="865" type="line" smooth="yes"/>
      <point x="265" y="793"/>
      <point x="300" y="684"/>
      <point x="373" y="610"/>
      <point x="483" y="572"/>
      <point x="558" y="572" type="qcurve" smooth="yes"/>
      <point x="809" y="572" type="line"/>
      <point x="809" y="280" type="line"/>
      <point x="845" y="280" type="line"/>
      <point x="845" y="572" type="line"/>
      <point x="1349" y="572" type="line"/>
    </contour>
  </outline>
</glyph>
<glyph name="uni20A6" format="2">
  <advance width="1692"/>
  <unicode hex="20A6"/>
  <outline>
    <contour>
      <point x="80" y="808" type="line"/>
      <point x="1612" y="808" type="line"/>
      <point x="1612" y="844" type="line"/>
      <point x="80" y="844" type="line"/>
    </contour>
    <contour>
      <point x="80" y="580" type="line"/>
      <point x="1612" y="580" type="line"/>
      <point x="1612" y="616" type="line"/>
      <point x="80" y="616" type="line"/>
    </contour>
    <contour>
      <point x="235" y="0" type="line"/>
      <point x="271" y="0" type="line"/>
      <point x="271" y="1338" type="line"/>
      <point x="1421" y="0" type="line"/>
      <point x="1457" y="0" type="line"/>
      <point x="1457" y="1400" type="line"/>
      <point x="1421" y="1400" type="line"/>
      <point x="1421" y="62" type="line"/>
      <point x="271" y="1400" type="line"/>
      <point x="235" y="1400" type="line"/>
    </contour>
  </outline>
  <guideline angle="0" x="0" y="1000"/>
</glyph>
<glyph name="uni20BC" format="2">
  <advance width="1606"/>
  <unicode hex="20BC"/>
  <outline>
    <contour>
      <point x="204" y="0" type="line"/>
      <point x="244" y="0" type="line"/>
      <point x="244" y="809" type="line" smooth="yes"/>
      <point x="244" y="941"/>
      <point x="373" y="1064"/>
      <point x="499" y="1064" type="qcurve" smooth="yes"/>
      <point x="783" y="1064" type="line"/>
      <point x="783" y="100" type="line"/>
      <point x="823" y="110" type="line"/>
      <point x="823" y="1064" type="line"/>
      <point x="1107" y="1064" type="line" smooth="yes"/>
      <point x="1233" y="1064"/>
      <point x="1362" y="941"/>
      <point x="1362" y="809" type="qcurve" smooth="yes"/>
      <point x="1362" y="0" type="line"/>
      <point x="1402" y="0" type="line"/>
      <point x="1402" y="807" type="line" smooth="yes"/>
      <point x="1402" y="882"/>
      <point x="1364" y="992"/>
      <point x="1290" y="1065"/>
      <point x="1181" y="1100"/>
      <point x="1109" y="1100" type="qcurve" smooth="yes"/>
      <point x="823" y="1100" type="line"/>
      <point x="823" y="1410" type="line"/>
      <point x="783" y="1400" type="line"/>
      <point x="783" y="1100" type="line"/>
      <point x="497" y="1100" type="line" smooth="yes"/>
      <point x="425" y="1100"/>
      <point x="316" y="1065"/>
      <point x="242" y="992"/>
      <point x="204" y="882"/>
      <point x="204" y="807" type="qcurve" smooth="yes"/>
    </contour>
  </outline>
</glyph>
<glyph name="trademark" format="2">
  <advance width="966"/>
  <unicode hex="2122"/>
  <outline>
    <contour>
      <point x="497" y="1020" type="line"/>
      <point x="497" y="1440" type="line"/>
      <point x="525" y="1440" type="line"/>
      <point x="724" y="1159" type="line"/>
      <point x="923" y="1440" type="line"/>
      <point x="951" y="1440" type="line"/>
      <point x="951" y="1020" type="line"/>
      <point x="917" y="1020" type="line"/>
      <point x="917" y="1375" type="line"/>
      <point x="724" y="1101" type="line"/>
      <point x="531" y="1373" type="line"/>
      <point x="531" y="1020" type="line"/>
    </contour>
    <contour>
      <point x="193" y="1020" type="line"/>
      <point x="193" y="1410" type="line"/>
      <point x="5" y="1410" type="line"/>
      <point x="5" y="1440" type="line"/>
      <point x="415" y="1440" type="line"/>
      <point x="415" y="1410" type="line"/>
      <point x="227" y="1410" type="line"/>
      <point x="227" y="1020" type="line"/>
    </contour>
  </outline>
</glyph>
<glyph name="c.sc" format="2">
  <advance width="1468" height="1448"/>
  <anchor x="744" y="1220" name="top"/>
  <anchor x="744" y="-150" name="bottom"/>
  <outline>
    <contour>
      <point x="269" y="839" type="line"/>
      <point x="269" y="221" type="line" smooth="yes"/>
      <point x="269" y="167"/>
      <point x="297" y="84"/>
      <point x="355" y="29"/>
      <point x="444" y="0"/>
      <point x="504" y="0" type="qcurve" smooth="yes"/>
      <point x="984" y="0" type="line" smooth="yes"/>
      <point x="1044" y="0"/>
      <point x="1133" y="29"/>
      <point x="1191" y="84"/>
      <point x="1219" y="167"/>
      <point x="1219" y="221" type="qcurve" smooth="yes"/>
      <point x="1219" y="387" type="line"/>
      <point x="1182" y="394" type="line"/>
      <point x="1182" y="218" type="line" smooth="yes"/>
      <point x="1182" y="127"/>
      <point x="1087" y="33"/>
      <point x="984" y="33" type="qcurve" smooth="yes"/>
      <point x="504" y="33" type="line" smooth="yes"/>
      <point x="401" y="33"/>
      <point x="306" y="127"/>
      <point x="306" y="218" type="qcurve" smooth="yes"/>
      <point x="306" y="842" type="line" smooth="yes"/>
      <point x="306" y="934"/>
      <point x="401" y="1027"/>
      <point x="504" y="1027" type="qcurve" smooth="yes"/>
      <point x="984" y="1027" type="line" smooth="yes"/>
      <point x="1087" y="1027"/>
      <point x="1182" y="934"/>
      <point x="1182" y="842" type="qcurve" smooth="yes"/>
      <point x="1182" y="686" type="line"/>
      <point x="1219" y="693" type="line"/>
      <point x="1219" y="839" type="line" smooth="yes"/>
      <point x="1219" y="893"/>
      <point x="1191" y="976"/>
      <point x="1132" y="1031"/>
      <point x="1044" y="1060"/>
      <point x="984" y="1060" type="qcurve" smooth="yes"/>
      <point x="504" y="1060" type="line" smooth="yes"/>
      <point x="444" y="1060"/>
      <point x="356" y="1031"/>
      <point x="297" y="976"/>
      <point x="269" y="893"/>
      <point x="269" y="839" type="qcurve"/>
    </contour>
  </outline>
</glyph>
<glyph name="nine.dnom" format="2">
  <advance width="1064"/>
  <outline>
    <contour>
      <point x="514" y="786" type="line"/>
      <point x="454" y="786"/>
      <point x="359" y="781"/>
      <point x="288" y="766"/>
      <point x="239" y="737"/>
      <point x="208" y="690"/>
      <point x="194" y="621"/>
      <point x="194" y="573" type="qcurve" smooth="yes"/>
      <point x="194" y="502"/>
      <point x="224" y="418"/>
      <point x="295" y="375"/>
      <point x="410" y="363"/>
      <point x="495" y="363" type="qcurve" smooth="yes"/>
      <point x="558" y="363"/>
      <point x="656" y="372"/>
      <point x="734" y="387"/>
      <point x="798" y="406"/>
      <point x="827" y="417" type="qcurve"/>
      <point x="827" y="448" type="line"/>
      <point x="793" y="436"/>
      <point x="721" y="416"/>
      <point x="641" y="401"/>
      <point x="550" y="393"/>
      <point x="496" y="393" type="qcurve" smooth="yes"/>
      <point x="415" y="393"/>
      <point x="311" y="404"/>
      <point x="251" y="442"/>
      <point x="228" y="513"/>
      <point x="228" y="574" type="qcurve" smooth="yes"/>
      <point x="228" y="615"/>
      <point x="238" y="674"/>
      <point x="263" y="715"/>
      <point x="307" y="739"/>
      <point x="375" y="752"/>
      <point x="469" y="756"/>
      <point x="532" y="756" type="qcurve" smooth="yes"/>
      <point x="595" y="756"/>
      <point x="686" y="747"/>
      <point x="749" y="724"/>
      <point x="787" y="686"/>
      <point x="807" y="627"/>
      <point x="814" y="546"/>
      <point x="814" y="492" type="qcurve" smooth="yes"/>
      <point x="814" y="414"/>
      <point x="793" y="284"/>
      <point x="749" y="181"/>
      <point x="681" y="104"/>
      <point x="586" y="53"/>
      <point x="463" y="27"/>
      <point x="386" y="27" type="qcurve" smooth="yes"/>
      <point x="376" y="27"/>
      <point x="358" y="27"/>
      <point x="343" y="28"/>
      <point x="331" y="29"/>
      <point x="328" y="30" type="qcurve"/>
      <point x="347" y="-1" type="line"/>
      <point x="350" y="-1"/>
      <point x="360" y="-2"/>
      <point x="372" y="-3"/>
      <point x="386" y="-3"/>
      <point x="394" y="-3" type="qcurve" smooth="yes"/>
      <point x="513" y="-3"/>
      <point x="685" y="61"/>
      <point x="796" y="186"/>
      <point x="848" y="370"/>
      <point x="848" y="490" type="qcurve" smooth="yes"/>
      <point x="848" y="551"/>
      <point x="840" y="642"/>
      <point x="816" y="708"/>
      <point x="771" y="751"/>
      <point x="696" y="776"/>
      <point x="589" y="786"/>
      <point x="514" y="786" type="qcurve"/>
    </contour>
  </outline>
</glyph>
<glyph name="periodcentered.loclCAT.case" format="2">
  <anchor x="-366" y="1279" name="_eldot"/>
  <outline>
    <contour>
      <point x="-398" y="1272" type="line"/>
      <point x="-398" y="1286" type="line" smooth="yes"/>
      <point x="-398" y="1295"/>
      <point x="-397" y="1304"/>
      <point x="-392" y="1309"/>
      <point x="-383" y="1310"/>
      <point x="-374" y="1310" type="qcurve" smooth="yes"/>
      <point x="-358" y="1310" type="line" smooth="yes"/>
      <point x="-349" y="1310"/>
      <point x="-340" y="1309"/>
      <point x="-335" y="1304"/>
      <point x="-334" y="1295"/>
      <point x="-334" y="1286" type="qcurve" smooth="yes"/>
      <point x="-334" y="1272" type="line" smooth="yes"/>
      <point x="-334" y="1263"/>
      <point x="-335" y="1254"/>
      <point x="-340" y="1249"/>
      <point x="-349" y="1248"/>
      <point x="-358" y="1248" type="qcurve" smooth="yes"/>
      <point x="-374" y="1248" type="line" smooth="yes"/>
      <point x="-383" y="1248"/>
      <point x="-392" y="1249"/>
      <point x="-397" y="1254"/>
      <point x="-398" y="1263"/>
      <point x="-398" y="1272" type="qcurve"/>
    </contour>
  </outline>
</glyph>
<glyph name="uni0307.case" format="2">
  <anchor x="0" y="1150" name="_top"/>
  <anchor x="3" y="1450" name="_bottom"/>
  <anchor x="0" y="1390" name="top"/>
  <outline>
    <contour>
      <point x="-42" y="1262" type="line"/>
      <point x="-42" y="1296" type="line" smooth="yes"/>
      <point x="-42" y="1305"/>
      <point x="-41" y="1314"/>
      <point x="-36" y="1319"/>
      <point x="-27" y="1320"/>
      <point x="-18" y="1320" type="qcurve" smooth="yes"/>
      <point x="18" y="1320" type="line" smooth="yes"/>
      <point x="27" y="1320"/>
      <point x="36" y="1319"/>
      <point x="41" y="1314"/>
      <point x="42" y="1305"/>
      <point x="42" y="1296" type="qcurve" smooth="yes"/>
      <point x="42" y="1262" type="line" smooth="yes"/>
      <point x="42" y="1253"/>
      <point x="41" y="1244"/>
      <point x="36" y="1239"/>
      <point x="27" y="1238"/>
      <point x="18" y="1238" type="qcurve" smooth="yes"/>
      <point x="-18" y="1238" type="line" smooth="yes"/>
      <point x="-27" y="1238"/>
      <point x="-36" y="1239"/>
      <point x="-41" y="1244"/>
      <point x="-42" y="1253"/>
      <point x="-42" y="1262" type="qcurve"/>
    </contour>
  </outline>
</glyph>
<glyph name="uni0454.sc" format="2">
  <advance width="1468"/>
  <anchor x="744" y="1210" name="top"/>
  <outline>
    <contour>
      <point x="504" y="0" type="line"/>
      <point x="984" y="0" type="line" smooth="yes"/>
      <point x="1044" y="0"/>
      <point x="1132" y="29"/>
      <point x="1191" y="84"/>
      <point x="1219" y="167"/>
      <point x="1219" y="221" type="qcurve" smooth="yes"/>
      <point x="1219" y="295" type="line"/>
      <point x="1182" y="302" type="line"/>
      <point x="1182" y="219" type="line" smooth="yes"/>
      <point x="1182" y="126"/>
      <point x="1087" y="33"/>
      <point x="984" y="33" type="qcurve" smooth="yes"/>
      <point x="504" y="33" type="line" smooth="yes"/>
      <point x="401" y="33"/>
      <point x="306" y="126"/>
      <point x="306" y="219" type="qcurve" smooth="yes"/>
      <point x="306" y="527" type="line"/>
      <point x="905" y="527" type="line"/>
      <point x="905" y="560" type="line"/>
      <point x="306" y="560" type="line"/>
      <point x="306" y="841" type="line" smooth="yes"/>
      <point x="306" y="934"/>
      <point x="401" y="1027"/>
      <point x="504" y="1027" type="qcurve" smooth="yes"/>
      <point x="984" y="1027" type="line" smooth="yes"/>
      <point x="1087" y="1027"/>
      <point x="1182" y="934"/>
      <point x="1182" y="841" type="qcurve" smooth="yes"/>
      <point x="1182" y="765" type="line"/>
      <point x="1219" y="772" type="line"/>
      <point x="1219" y="839" type="line" smooth="yes"/>
      <point x="1219" y="893"/>
      <point x="1191" y="976"/>
      <point x="1132" y="1031"/>
      <point x="1044" y="1060"/>
      <point x="984" y="1060" type="qcurve" smooth="yes"/>
      <point x="504" y="1060" type="line" smooth="yes"/>
      <point x="444" y="1060"/>
      <point x="356" y="1031"/>
      <point x="297" y="976"/>
      <point x="269" y="893"/>
      <point x="269" y="839" type="qcurve" smooth="yes"/>
      <point x="269" y="221" type="line" smooth="yes"/>
      <point x="269" y="167"/>
      <point x="297" y="84"/>
      <point x="356" y="29"/>
      <point x="444" y="0"/>
      <point x="504" y="0" type="qcurve"/>
    </contour>
  </outline>
</glyph>
<glyph name="uni0473.sc" format="2">
  <advance width="1522"/>
  <outline>
    <contour>
      <point x="504" y="0" type="line"/>
      <point x="1018" y="0" type="line" smooth="yes"/>
      <point x="1078" y="0"/>
      <point x="1166" y="28"/>
      <point x="1225" y="84"/>
      <point x="1253" y="166"/>
      <point x="1253" y="221" type="qcurve" smooth="yes"/>
      <point x="1253" y="839" type="line" smooth="yes"/>
      <point x="1253" y="894"/>
      <point x="1225" y="977"/>
      <point x="1166" y="1032"/>
      <point x="1078" y="1060"/>
      <point x="1018" y="1060" type="qcurve" smooth="yes"/>
      <point x="504" y="1060" type="line" smooth="yes"/>
      <point x="444" y="1060"/>
      <point x="356" y="1032"/>
      <point x="297" y="977"/>
      <point x="269" y="894"/>
      <point x="269" y="839" type="qcurve" smooth="yes"/>
      <point x="269" y="221" type="line" smooth="yes"/>
      <point x="269" y="166"/>
      <point x="297" y="84"/>
      <point x="356" y="28"/>
      <point x="444" y="0"/>
      <point x="504" y="0" type="qcurve"/>
    </contour>
    <contour>
      <point x="306" y="545" type="line"/>
      <point x="306" y="841" type="line" smooth="yes"/>
      <point x="306" y="934"/>
      <point x="401" y="1027"/>
      <point x="504" y="1027" type="qcurve" smooth="yes"/>
      <point x="1018" y="1027" type="line" smooth="yes"/>
      <point x="1121" y="1027"/>
      <point x="1216" y="934"/>
      <point x="1216" y="841" type="qcurve" smooth="yes"/>
      <point x="1216" y="545" type="line"/>
    </contour>
    <contour>
      <point x="306" y="515" type="line"/>
      <point x="1216" y="515" type="line"/>
      <point x="1216" y="219" type="line" smooth="yes"/>
      <point x="1216" y="126"/>
      <point x="1121" y="33"/>
      <point x="1018" y="33" type="qcurve" smooth="yes"/>
      <point x="504" y="33" type="line" smooth="yes"/>
      <point x="401" y="33"/>
      <point x="306" y="126"/>
      <point x="306" y="219" type="qcurve" smooth="yes"/>
    </contour>
  </outline>
</glyph>
<glyph name="uni04F7.sc" format="2">
  <advance width="1109"/>
  <outline>
    <contour>
      <point x="285" y="0" type="line" name="ATT"/>
      <point x="382" y="0" type="line"/>
      <point x="384" y="-220" type="line"/>
      <point x="417" y="-220" type="line"/>
      <point x="417" y="33" type="line"/>
      <point x="322" y="33" type="line"/>
      <point x="322" y="1027" type="line"/>
      <point x="1104" y="1027" type="line"/>
      <point x="1104" y="1060" type="line"/>
      <point x="285" y="1060" type="line"/>
    </contour>
  </outline>
</glyph>
